<mxfile host="app.diagrams.net" modified="2023-03-20T13:03:46.419Z" agent="5.0 (Windows NT 10.0; Win64; x64) AppleWebKit/537.36 (KHTML, like Gecko) Chrome/111.0.0.0 Safari/537.36" etag="_FXSZDEHb6U9PRrWgnYC" version="21.0.8" type="github">
  <diagram name="第 1 页" id="3q4NxlNoq3ld3uSNw7Nf">
    <mxGraphModel dx="1434" dy="788" grid="1" gridSize="10" guides="1" tooltips="1" connect="1" arrows="1" fold="1" page="1" pageScale="1" pageWidth="827" pageHeight="1169" math="0" shadow="0">
      <root>
        <mxCell id="0" />
        <mxCell id="1" parent="0" />
        <mxCell id="JklxnonR3-prULAY44mV-3" value="" style="rounded=0;whiteSpace=wrap;html=1;" vertex="1" parent="1">
          <mxGeometry x="80" y="120" width="60" height="440" as="geometry" />
        </mxCell>
        <mxCell id="JklxnonR3-prULAY44mV-4" value="&lt;font style=&quot;font-size: 14px;&quot;&gt;提高零信任网络架构中内部数据传输的安全性与灵活性&lt;/font&gt;" style="text;html=1;strokeColor=none;fillColor=none;align=center;verticalAlign=middle;whiteSpace=wrap;rounded=0;" vertex="1" parent="1">
          <mxGeometry x="85" y="250" width="50" height="140" as="geometry" />
        </mxCell>
        <mxCell id="JklxnonR3-prULAY44mV-5" value="&lt;font style=&quot;font-size: 14px;&quot;&gt;研究目标&lt;/font&gt;" style="text;html=1;strokeColor=none;fillColor=none;align=center;verticalAlign=middle;whiteSpace=wrap;rounded=0;" vertex="1" parent="1">
          <mxGeometry x="80" y="80" width="60" height="30" as="geometry" />
        </mxCell>
        <mxCell id="JklxnonR3-prULAY44mV-6" value="" style="shape=flexArrow;endArrow=classic;html=1;rounded=0;" edge="1" parent="1">
          <mxGeometry width="50" height="50" relative="1" as="geometry">
            <mxPoint x="150" y="180" as="sourcePoint" />
            <mxPoint x="200" y="180" as="targetPoint" />
          </mxGeometry>
        </mxCell>
        <mxCell id="JklxnonR3-prULAY44mV-7" value="&lt;font style=&quot;font-size: 14px;&quot;&gt;网络场景的信息流控制方法缺失&lt;/font&gt;" style="rounded=0;whiteSpace=wrap;html=1;" vertex="1" parent="1">
          <mxGeometry x="220" y="150" width="120" height="60" as="geometry" />
        </mxCell>
        <mxCell id="JklxnonR3-prULAY44mV-8" value="&lt;font style=&quot;font-size: 14px;&quot;&gt;关键技术问题&lt;/font&gt;" style="text;html=1;strokeColor=none;fillColor=none;align=center;verticalAlign=middle;whiteSpace=wrap;rounded=0;" vertex="1" parent="1">
          <mxGeometry x="230" y="80" width="100" height="30" as="geometry" />
        </mxCell>
        <mxCell id="JklxnonR3-prULAY44mV-9" value="" style="shape=flexArrow;endArrow=classic;html=1;rounded=0;" edge="1" parent="1">
          <mxGeometry width="50" height="50" relative="1" as="geometry">
            <mxPoint x="150" y="320" as="sourcePoint" />
            <mxPoint x="200" y="320" as="targetPoint" />
          </mxGeometry>
        </mxCell>
        <mxCell id="JklxnonR3-prULAY44mV-10" value="&lt;font style=&quot;font-size: 14px;&quot;&gt;网络场景多次传输后数据流向不可控&lt;/font&gt;" style="rounded=0;whiteSpace=wrap;html=1;" vertex="1" parent="1">
          <mxGeometry x="220" y="290" width="120" height="60" as="geometry" />
        </mxCell>
        <mxCell id="JklxnonR3-prULAY44mV-11" value="" style="shape=flexArrow;endArrow=classic;html=1;rounded=0;" edge="1" parent="1">
          <mxGeometry width="50" height="50" relative="1" as="geometry">
            <mxPoint x="150" y="500" as="sourcePoint" />
            <mxPoint x="200" y="500" as="targetPoint" />
          </mxGeometry>
        </mxCell>
        <mxCell id="JklxnonR3-prULAY44mV-12" value="&lt;font style=&quot;font-size: 14px;&quot;&gt;网络场景多次传输后数据流向不可控&lt;/font&gt;" style="rounded=0;whiteSpace=wrap;html=1;" vertex="1" parent="1">
          <mxGeometry x="220" y="470" width="120" height="60" as="geometry" />
        </mxCell>
      </root>
    </mxGraphModel>
  </diagram>
</mxfile>
